<svg xmlns="http://www.w3.org/2000/svg" xmlns:xlink="http://www.w3.org/1999/xlink" version="1.1" height="40px" width="45px" x="0px" y="0px" viewBox="0 0 100 125" style="enable-background:new 0 0 100 100;" xml:space="preserve"><style type="text/css">
	.st0{fill:none;}
</style><path d="M93.1,46.4l-9.9-8.6V23.5c0-1.7-1.4-3-3-3h-6.3c-1.7,0-3,1.4-3,3v3.6L53.3,11.8c-1.9-1.7-4.7-1.7-6.6,0L6.7,46.5  c-1.6,1.4-2.2,3.6-1.4,5.6c0.7,2,2.6,3.3,4.7,3.3h7.7v31.1c0,1.6,1.3,2.9,2.9,2.9h17.2V66.8c0-3.2,2.6-5.8,5.8-5.8h12.7  c3.2,0,5.8,2.6,5.8,5.8v22.6h17.2c1.6,0,2.9-1.3,2.9-2.9V55.4h7.7h0c2.8,0,5.1-2.3,5.1-5.1C95,48.7,94.3,47.3,93.1,46.4z"/><text x="0" y="115" fill="#000000" font-size="5px" font-weight="bold" font-family="'Helvetica Neue', Helvetica, Arial-Unicode, Arial, Sans-serif">Created by Fajar</text><text x="0" y="120" fill="#000000" font-size="5px" font-weight="bold" font-family="'Helvetica Neue', Helvetica, Arial-Unicode, Arial, Sans-serif">from the Noun Project</text></svg>