<svg xmlns="http://www.w3.org/2000/svg" xmlns:xlink="http://www.w3.org/1999/xlink" version="1.1" x="0px" y="0px" viewBox="0 0 32 40" style="enable-background:new 0 0 32 32;" xml:space="preserve"><g><path d="M24.97824,4.96436c-1.22266-0.24414-2.01172,0.66357-2.77539,1.53906c-0.70929,0.81189-1.44012,1.63293-2.58948,1.85486   c0.3963-0.64612,0.59302-1.4248,0.52209-2.30115c-0.15918-1.9624-1.67871-4.08447-3.85547-4.08936c-0.00391,0-0.00684,0-0.01074,0   c-1.58301,0-2.97461,0.87793-3.72363,2.35059c-0.75781,1.49023-0.68848,3.28223,0.17383,4.45996   c0.05426,0.07404,0.1181,0.15295,0.19012,0.23407c-1.51923,0.40833-3.4823,1.01923-3.75067,3.55743   c-0.45508,4.31104-0.19141,7.04639,0.78418,8.12939c0.33594,0.37305,0.76172,0.57031,1.23242,0.57031   c0.46997,0,0.87805-0.1145,1.21826-0.34119c0.09479,2.54071,0.16748,5.50171,0.16748,7.02087   c0,1.36719,1.08594,2.08301,2.15918,2.08301c0.52277,0,1.05969-0.17719,1.47418-0.51349   c0.39154,0.32855,0.89868,0.51349,1.44476,0.51349c1.15527,0,2.38379-0.82227,2.38379-2.34766   c0-1.03223,0.03223-2.80566,0.06738-4.80859c0.06177-3.44788,0.13745-7.65021,0.08014-9.88971   c3.9375-0.86969,6.09753-3.99689,6.14935-6.06439C26.34641,5.88525,25.83274,5.13477,24.97824,4.96436z M13.88254,4.99854   c0.23438-0.46045,0.93555-1.53076,2.38672-1.53076c0.00195,0,0.00488,0,0.00684,0c1.2832,0.00293,2.25781,1.40381,2.36426,2.71045   c0.05078,0.62598-0.04785,2.11719-2.04492,2.44775c-1.24414,0.20361-2.16406-0.04883-2.66504-0.73389   C13.39328,7.15967,13.37473,5.99707,13.88254,4.99854z M19.28977,11.62939c-0.03784,0.00562-0.06799,0.02649-0.10352,0.03729   c-0.04968,0.01508-0.09894,0.02728-0.14349,0.0517c-0.04175,0.02283-0.07513,0.05322-0.11133,0.08307   c-0.03821,0.03137-0.07629,0.06-0.10754,0.09814c-0.03009,0.03662-0.0498,0.078-0.07251,0.11969   c-0.02332,0.04266-0.04755,0.08282-0.06226,0.12988c-0.01514,0.04791-0.0174,0.09802-0.02252,0.14905   c-0.00372,0.03699-0.01837,0.07074-0.01648,0.10901c0.09375,1.93066,0.00879,6.64941-0.05859,10.44141   c-0.03613,2.01465-0.06836,3.79785-0.06836,4.83594c0,0.6709-0.57812,0.84766-0.88379,0.84766   c-0.20215,0-0.38086-0.06152-0.50195-0.17285c-0.13867-0.12695-0.20898-0.32617-0.20898-0.5918v-6.72266   c0-0.41406-0.33594-0.75-0.75-0.75c-0.41406,0-0.75,0.33594-0.75,0.75v6.90137c0,0.56934-0.63574,0.58594-0.70801,0.58594   c-0.19824,0-0.65918-0.05664-0.65918-0.58301c0-2.43164-0.18457-8.53125-0.35059-10.78809   c-0.00085-0.01154-0.00763-0.02063-0.00897-0.03198c0.05005-0.96698,0.05115-2.16656,0.01093-3.6814   c-0.01074-0.40723-0.34473-0.72998-0.75-0.72998c-0.00586,0-0.0127,0-0.01953,0.00049   c-0.41406,0.01074-0.74121,0.35547-0.73047,0.76953c0.07129,2.66602,0.05762,5.479-0.57422,6.12842   c-0.07715,0.0791-0.1875,0.15332-0.46289,0.15332c-0.02051,0-0.05176,0-0.11719-0.07324   c-0.47266-0.52441-0.8623-2.66406-0.40723-6.96924c0.1582-1.49805,1.16895-1.87305,2.81641-2.3125   c0.39661-0.10614,0.80139-0.21948,1.17651-0.3609c0.33893,0.0882,0.72485,0.14117,1.16333,0.14117   c0.31641,0,0.66016-0.02734,1.03223-0.08936c0.37421-0.06195,0.71155-0.17249,1.03064-0.30371   c2.91241,0.59442,4.44537-1.14594,5.46252-2.31152c0.61035-0.69922,1.00293-1.12451,1.35156-1.05518   c0.14355,0.02881,0.1377,0.40625,0.13672,0.44873C24.78782,8.21533,23.08078,11.06836,19.28977,11.62939z"/></g><text x="0" y="47" fill="#000000" font-size="5px" font-weight="bold" font-family="'Helvetica Neue', Helvetica, Arial-Unicode, Arial, Sans-serif">Created by Valerie Lamm</text><text x="0" y="52" fill="#000000" font-size="5px" font-weight="bold" font-family="'Helvetica Neue', Helvetica, Arial-Unicode, Arial, Sans-serif">from the Noun Project</text></svg>